<svg width="108" height="109" viewBox="0 0 108 109" fill="none" xmlns="http://www.w3.org/2000/svg">
<g filter="url(#filter0_d)">
<rect x="50.5833" y="16" width="6" height="42.5833" transform="rotate(90 50.5833 16)" fill="#444444"/>
<rect x="81" y="16" width="6" height="30.4167" transform="rotate(90 81 16)" fill="#6A6A6A"/>
<rect x="41.7119" y="28" width="6" height="33.7118" transform="rotate(90 41.7119 28)" fill="#444444"/>
<rect x="65.7917" y="28" width="6" height="24.0799" transform="rotate(90 65.7917 28)" fill="#6A6A6A"/>
<rect x="41.7119" y="76" width="6" height="33.7118" transform="rotate(90 41.7119 76)" fill="#444444"/>
<rect x="65.7917" y="76" width="6" height="24.0799" transform="rotate(90 65.7917 76)" fill="#6A6A6A"/>
<rect x="33.7274" y="40" width="6" height="25.7274" transform="rotate(90 33.7274 40)" fill="#444444"/>
<rect x="52.1042" y="40" width="6" height="18.3767" transform="rotate(90 52.1042 40)" fill="#6A6A6A"/>
<rect x="33.7274" y="88" width="6" height="25.7274" transform="rotate(90 33.7274 88)" fill="#444444"/>
<rect x="52.1042" y="88" width="6" height="18.3767" transform="rotate(90 52.1042 88)" fill="#6A6A6A"/>
<rect x="27.5174" y="52" width="6" height="19.5174" transform="rotate(90 27.5174 52)" fill="#444444"/>
<rect x="41.4583" y="52" width="6" height="13.941" transform="rotate(90 41.4583 52)" fill="#6A6A6A"/>
<rect x="33.7274" y="64" width="6" height="25.7274" transform="rotate(90 33.7274 64)" fill="#444444"/>
<rect x="52.1042" y="64" width="6" height="18.3767" transform="rotate(90 52.1042 64)" fill="#6A6A6A"/>
<path d="M8 8V100H100" stroke="#444444"/>
</g>
<defs>
<filter id="filter0_d" x="-4" y="0" width="116" height="116" filterUnits="userSpaceOnUse" color-interpolation-filters="sRGB">
<feFlood flood-opacity="0" result="BackgroundImageFix"/>
<feColorMatrix in="SourceAlpha" type="matrix" values="0 0 0 0 0 0 0 0 0 0 0 0 0 0 0 0 0 0 127 0"/>
<feOffset dy="4"/>
<feGaussianBlur stdDeviation="2"/>
<feColorMatrix type="matrix" values="0 0 0 0 0 0 0 0 0 0 0 0 0 0 0 0 0 0 0.25 0"/>
<feBlend mode="normal" in2="BackgroundImageFix" result="effect1_dropShadow"/>
<feBlend mode="normal" in="SourceGraphic" in2="effect1_dropShadow" result="shape"/>
</filter>
</defs>
</svg>
