<svg width="108" height="109" viewBox="0 0 108 109" fill="none" xmlns="http://www.w3.org/2000/svg">
<g filter="url(#filter0_d)">
<rect x="46.1818" y="16" width="6" height="38.1818" transform="rotate(90 46.1818 16)" fill="#444444"/>
<rect x="98" y="16" width="6" height="53.1818" transform="rotate(90 98 16)" fill="#6A6A6A"/>
<rect x="60.5" y="28" width="6" height="52.5" transform="rotate(90 60.5 28)" fill="#444444"/>
<rect x="98" y="28" width="6" height="37.5" transform="rotate(90 98 28)" fill="#6A6A6A"/>
<rect x="60.5" y="76" width="6" height="52.5" transform="rotate(90 60.5 76)" fill="#444444"/>
<rect x="98" y="76" width="6" height="37.5" transform="rotate(90 98 76)" fill="#6A6A6A"/>
<rect x="38" y="40" width="6" height="30" transform="rotate(90 38 40)" fill="#444444"/>
<rect x="98" y="40" width="6" height="60" transform="rotate(90 98 40)" fill="#6A6A6A"/>
<rect x="38" y="88" width="6" height="30" transform="rotate(90 38 88)" fill="#444444"/>
<rect x="98" y="88" width="6" height="60" transform="rotate(90 98 88)" fill="#6A6A6A"/>
<rect x="68" y="52" width="6" height="60" transform="rotate(90 68 52)" fill="#444444"/>
<rect x="98" y="52" width="6" height="32.7273" transform="rotate(90 98 52)" fill="#6A6A6A"/>
<rect x="68" y="64" width="6" height="60" transform="rotate(90 68 64)" fill="#444444"/>
<rect x="98" y="64" width="6" height="30" transform="rotate(90 98 64)" fill="#6A6A6A"/>
<path d="M8 8V100H100" stroke="#444444"/>
</g>
<defs>
<filter id="filter0_d" x="-4" y="0" width="116" height="116" filterUnits="userSpaceOnUse" color-interpolation-filters="sRGB">
<feFlood flood-opacity="0" result="BackgroundImageFix"/>
<feColorMatrix in="SourceAlpha" type="matrix" values="0 0 0 0 0 0 0 0 0 0 0 0 0 0 0 0 0 0 127 0"/>
<feOffset dy="4"/>
<feGaussianBlur stdDeviation="2"/>
<feColorMatrix type="matrix" values="0 0 0 0 0 0 0 0 0 0 0 0 0 0 0 0 0 0 0.25 0"/>
<feBlend mode="normal" in2="BackgroundImageFix" result="effect1_dropShadow"/>
<feBlend mode="normal" in="SourceGraphic" in2="effect1_dropShadow" result="shape"/>
</filter>
</defs>
</svg>
