<svg width="16" height="16" viewBox="0 0 16 16" fill="none" xmlns="http://www.w3.org/2000/svg">
<g clip-path="url(#clip0)">
<path d="M14.17 2.88992L14.3614 1.53303C14.4 1.25913 14.6533 1.0683 14.9272 1.10666C15.2016 1.14507 15.3927 1.39876 15.354 1.67307L14.9132 4.79763L11.8843 4.37356C11.6106 4.33524 11.4199 4.08215 11.4585 3.80848C11.4971 3.53522 11.7497 3.34485 12.023 3.38311L13.4424 3.58184C12.1555 2.00629 10.1949 1 7.99858 1C4.45251 1 1.5207 3.62323 1.04733 7.03026C1.02946 7.15883 1.0151 7.34267 1.00434 7.51577C0.987554 7.78571 0.766154 8 0.495702 8C0.212374 8 -0.0152211 7.76567 0.000796699 7.4828C0.010292 7.31511 0.0227107 7.14051 0.0379854 7.01626C0.524102 3.06208 3.90283 0 7.99858 0C10.4803 0 12.6987 1.12422 14.17 2.88992Z" fill="#C5C5C5"/>
<path d="M15.9958 8.5177C16.0121 8.23463 15.7844 8 15.5009 8C15.2307 8 15.0093 8.21391 14.9923 8.48363C14.9807 8.66691 14.965 8.8641 14.9454 9.00068C14.4587 12.3926 11.5339 15 7.99855 15C5.83542 15 3.90086 14.0239 2.61348 12.4891L4.07646 12.6681C4.3504 12.7016 4.59968 12.5068 4.63345 12.2329C4.66726 11.9586 4.47217 11.7089 4.19786 11.6754L1.16193 11.3041L0.775862 14.4358C0.74197 14.7108 0.937524 14.9611 1.21249 14.9947C1.48709 15.0283 1.73697 14.8331 1.77082 14.5585L1.9339 13.2356C3.40456 14.9289 5.57614 16 7.99855 16C12.0845 16 15.4568 12.9526 15.9556 9.01224C15.9722 8.88087 15.9857 8.69465 15.9958 8.5177Z" fill="#C5C5C5"/>
</g>
<defs>
<clipPath id="clip0">
<rect width="15.9966" height="16" fill="white"/>
</clipPath>
</defs>
</svg>
