<svg width="16" height="16" viewBox="0 0 16 16" fill="none" xmlns="http://www.w3.org/2000/svg">
<g clip-path="url(#clip0)">
<path fill-rule="evenodd" clip-rule="evenodd" d="M9 4.12036C9 4.3965 8.77614 4.62036 8.5 4.62036H0.5C0.223858 4.62036 0 4.3965 0 4.12036C0 3.84422 0.223858 3.62036 0.5 3.62036H8.5C8.77614 3.62036 9 3.84422 9 4.12036Z" fill="#C5C5C5"/>
<path fill-rule="evenodd" clip-rule="evenodd" d="M9 12.1204C9 12.3965 8.77614 12.6204 8.5 12.6204H0.5C0.223858 12.6204 0 12.3965 0 12.1204C0 11.8442 0.223858 11.6204 0.5 11.6204H8.5C8.77614 11.6204 9 11.8442 9 12.1204Z" fill="#C5C5C5"/>
<path fill-rule="evenodd" clip-rule="evenodd" d="M15.8264 2.12038C16.0361 2.30009 16.0604 2.61574 15.8807 2.82541L13.5575 5.53582C13.1784 5.9781 12.503 6.00404 12.0911 5.59214L10.8264 4.32749C10.6312 4.13223 10.6312 3.81564 10.8264 3.62038C11.0217 3.42512 11.3383 3.42512 11.5335 3.62038L12.7982 4.88503L15.1214 2.17461C15.3011 1.96495 15.6168 1.94067 15.8264 2.12038Z" fill="#C5C5C5"/>
<path fill-rule="evenodd" clip-rule="evenodd" d="M15.8264 10.1204C16.0361 10.3001 16.0604 10.6157 15.8807 10.8254L13.5575 13.5358C13.1784 13.9781 12.503 14.004 12.0911 13.5921L10.8264 12.3275C10.6312 12.1322 10.6312 11.8156 10.8264 11.6204C11.0217 11.4251 11.3383 11.4251 11.5335 11.6204L12.7982 12.885L15.1214 10.1746C15.3011 9.96495 15.6168 9.94067 15.8264 10.1204Z" fill="#C5C5C5"/>
</g>
<defs>
<clipPath id="clip0">
<rect width="16" height="16" fill="white"/>
</clipPath>
</defs>
</svg>
