<svg width="12" height="12" viewBox="0 0 12 12" fill="none" xmlns="http://www.w3.org/2000/svg">
<g clip-path="url(#clip0)">
<path fill-rule="evenodd" clip-rule="evenodd" d="M5.94974 5.24265L6.65685 4.53553C7.04738 4.14501 7.04738 3.51184 6.65685 3.12132L3.82843 0.292893C3.4379 -0.097631 2.80474 -0.0976311 2.41421 0.292893L0.292893 2.41421C-0.0976311 2.80474 -0.097631 3.4379 0.292893 3.82843L3.12132 6.65685C3.51184 7.04738 4.14501 7.04738 4.53553 6.65685L5.24263 5.94975L6.05285 6.75997L5.34575 7.46707C4.95523 7.85759 4.95523 8.49076 5.34575 8.88128L8.17418 11.7097C8.5647 12.1002 9.19787 12.1002 9.58839 11.7097L11.7097 9.58839C12.1002 9.19787 12.1002 8.5647 11.7097 8.17418L8.88128 5.34575C8.49076 4.95523 7.85759 4.95523 7.46707 5.34575L6.75996 6.05286L5.94974 5.24265ZM5.94975 3.82843L3.12132 1L1 3.12132L3.82843 5.94975L4.53553 5.24265L4.00887 4.71599C3.81361 4.52073 3.81361 4.20415 4.00887 4.00889C4.20414 3.81363 4.52072 3.81363 4.71598 4.00889L5.24263 4.53554L5.94975 3.82843ZM6.75996 7.46708L7.26156 7.96869C7.45683 8.16395 7.77341 8.16395 7.96867 7.96869C8.16393 7.77342 8.16393 7.45684 7.96867 7.26158L7.46706 6.75997L8.17418 6.05286L11.0026 8.88128L8.88128 11.0026L6.05286 8.17418L6.75996 7.46708Z" fill="black"/>
</g>
<defs>
<clipPath id="clip0">
<rect width="12" height="12" fill="white"/>
</clipPath>
</defs>
</svg>
