<svg width="12" height="12" viewBox="0 0 12 12" fill="none" xmlns="http://www.w3.org/2000/svg">
<g clip-path="url(#clip0)">
<path d="M8.85355 9.35355C9.04882 9.15829 9.04882 8.84171 8.85355 8.64645C8.65829 8.45118 8.34171 8.45118 8.14645 8.64645L6.5 10.2929L6.5 1.70711L8.14645 3.35355C8.34171 3.54882 8.65829 3.54882 8.85355 3.35355C9.04882 3.15829 9.04882 2.84171 8.85355 2.64645L6.35355 0.146446C6.15829 -0.0488157 5.84171 -0.0488157 5.64645 0.146446L3.14645 2.64645C2.95118 2.84171 2.95118 3.15829 3.14645 3.35355C3.34171 3.54882 3.65829 3.54882 3.85355 3.35355L5.5 1.70711L5.5 10.2929L3.85355 8.64645C3.65829 8.45118 3.34171 8.45118 3.14645 8.64645C2.95118 8.84171 2.95118 9.15829 3.14645 9.35355L5.64645 11.8536C5.74021 11.9473 5.86739 12 6 12C6.13261 12 6.25979 11.9473 6.35355 11.8536L8.85355 9.35355Z" fill="black"/>
</g>
<defs>
<clipPath id="clip0">
<rect width="12" height="12" fill="white"/>
</clipPath>
</defs>
</svg>
