<svg width="108" height="109" viewBox="0 0 108 109" fill="none" xmlns="http://www.w3.org/2000/svg">
<g filter="url(#filter0_d)">
<rect x="86" y="12" width="6" height="78" transform="rotate(90 86 12)" fill="#444444"/>
<rect x="50" y="19" width="6" height="42" transform="rotate(90 50 19)" fill="#6A6A6A"/>
<rect x="60" y="29" width="6" height="52" transform="rotate(90 60 29)" fill="#444444"/>
<rect x="48" y="46" width="6" height="40" transform="rotate(90 48 46)" fill="#444444"/>
<rect x="41" y="63" width="6" height="33" transform="rotate(90 41 63)" fill="#444444"/>
<rect x="60" y="80" width="6" height="52" transform="rotate(90 60 80)" fill="#444444"/>
<rect x="43" y="36" width="6" height="35" transform="rotate(90 43 36)" fill="#6A6A6A"/>
<rect x="36" y="53" width="6" height="28" transform="rotate(90 36 53)" fill="#6A6A6A"/>
<rect x="30" y="70" width="6" height="22" transform="rotate(90 30 70)" fill="#6A6A6A"/>
<rect x="43" y="87" width="6" height="35" transform="rotate(90 43 87)" fill="#6A6A6A"/>
<path d="M8 8V100H100" stroke="#444444"/>
</g>
<defs>
<filter id="filter0_d" x="-4" y="0" width="116" height="116" filterUnits="userSpaceOnUse" color-interpolation-filters="sRGB">
<feFlood flood-opacity="0" result="BackgroundImageFix"/>
<feColorMatrix in="SourceAlpha" type="matrix" values="0 0 0 0 0 0 0 0 0 0 0 0 0 0 0 0 0 0 127 0"/>
<feOffset dy="4"/>
<feGaussianBlur stdDeviation="2"/>
<feColorMatrix type="matrix" values="0 0 0 0 0 0 0 0 0 0 0 0 0 0 0 0 0 0 0.25 0"/>
<feBlend mode="normal" in2="BackgroundImageFix" result="effect1_dropShadow"/>
<feBlend mode="normal" in="SourceGraphic" in2="effect1_dropShadow" result="shape"/>
</filter>
</defs>
</svg>
