<svg width="16" height="16" viewBox="0 0 16 16" fill="none" xmlns="http://www.w3.org/2000/svg">
<path d="M13.6189 3L11.6799 1.38419L12.3201 0.615967L15.781 3.50008L12.3201 6.38419L11.6799 5.61597L13.6191 4H3.87C2.56109 4 1.5 5.06108 1.5 6.37C1.5 7.67891 2.56109 8.74 3.87 8.74H12.12C13.9867 8.74 15.5 10.2533 15.5 12.12C15.5 13.9867 13.9867 15.5 12.12 15.5H2.16667V14.5H12.12C13.4344 14.5 14.5 13.4344 14.5 12.12C14.5 10.8056 13.4344 9.74 12.12 9.74H3.87C2.0088 9.74 0.5 8.2312 0.5 6.37C0.5 4.5088 2.0088 3 3.87 3H13.6189Z" fill="black"/>
</svg>
