<svg width="8" height="15" viewBox="0 0 8 15" fill="none" xmlns="http://www.w3.org/2000/svg">
<path fill-rule="evenodd" clip-rule="evenodd" d="M0 3.067C0 0.852 1.791 0 4 0C6.209 0 8 0.852 8 3.066V10.99L4 15L0 10.989V3.067ZM4 13.794L7.1 10.686V2.927C7.1 1.509 6.057 0.79 4 0.79C1.943 0.79 0.9 1.51 0.9 2.926V10.686L4 13.794ZM6 5.022C6 6.12657 5.10457 7.022 4 7.022C2.89543 7.022 2 6.12657 2 5.022C2 3.91743 2.89543 3.022 4 3.022C5.10457 3.022 6 3.91743 6 5.022ZM4 4.022C4.55228 4.022 5 4.46972 5 5.022C5 5.57428 4.55228 6.022 4 6.022C3.44772 6.022 3 5.57428 3 5.022C3 4.46972 3.44772 4.022 4 4.022Z" fill="#B6B6B6"/>
</svg>
