<svg width="16" height="16" viewBox="0 0 16 16" fill="none" xmlns="http://www.w3.org/2000/svg">
<rect opacity="0.01" width="16" height="16" fill="#076FE5"/>
<path fill-rule="evenodd" clip-rule="evenodd" d="M0.5 2C0.223858 2 0 2.22386 0 2.5C0 2.77614 0.223858 3 0.5 3H15.5C15.7761 3 16 2.77614 16 2.5C16 2.22386 15.7761 2 15.5 2H0.5ZM0 7.5C0 7.22386 0.223858 7 0.5 7H15.5C15.7761 7 16 7.22386 16 7.5C16 7.77614 15.7761 8 15.5 8H0.5C0.223858 8 0 7.77614 0 7.5ZM0 12.5C0 12.2239 0.223858 12 0.5 12H15.5C15.7761 12 16 12.2239 16 12.5C16 12.7761 15.7761 13 15.5 13H0.5C0.223858 13 0 12.7761 0 12.5Z" fill="#076FE5"/>
</svg>
